<svg version="1.1" id="Layer_1" xmlns="http://www.w3.org/2000/svg" xmlns:xlink="http://www.w3.org/1999/xlink" x="0px" y="0px"
	 width="100%" viewBox="0 0 219 219" enable-background="new 0 0 219 219" xml:space="preserve">

<path fill="#E6E6E6" opacity="1.000000" stroke="none" 
	d="
M90.502396,186.384964 
	C86.587410,187.290115 82.388428,187.832825 78.080215,187.734253 
	C61.761833,187.360916 45.421455,188.465637 29.118969,187.085922 
	C18.766150,186.209747 11.322639,179.064911 11.051392,168.788086 
	C10.207573,136.818130 10.263724,104.838493 11.015612,72.864494 
	C11.127559,68.103905 10.516191,63.344471 11.917241,58.574966 
	C13.642573,52.701527 20.349257,45.888752 28.585693,44.915951 
	C46.488628,42.801441 64.420906,44.298729 82.332634,44.050526 
	C88.282043,43.968079 94.298523,45.811859 99.228340,49.235600 
	C103.229317,52.014263 104.094353,57.029007 104.970428,61.650360 
	C105.215446,62.942848 105.103706,64.302971 105.505150,65.848846 
	C107.083626,67.236160 106.985481,68.774582 106.985756,70.266960 
	C106.991379,100.906822 107.037827,131.546692 106.964455,162.186539 
	C106.962852,162.856293 106.836472,163.510345 106.390442,164.582825 
	C104.800949,173.310440 102.865555,181.246948 93.635315,185.064774 
	C93.513725,185.409836 93.779549,185.681473 93.853180,186.163910 
	C92.929886,186.607559 92.352180,187.137466 91.340187,187.432129 
	C90.584641,187.346283 90.346107,187.056763 90.502396,186.384964 
z"/>
<path fill="#E6E6E6" opacity="1.000000" stroke="none" 
	d="
M133.651611,44.639404 
	C136.972504,43.657944 140.084534,43.917595 143.165375,43.918282 
	C157.950562,43.921589 172.739288,44.137836 187.519760,43.878849 
	C198.008469,43.695065 207.040039,48.219612 209.267303,60.707695 
	C209.372543,61.297771 209.761292,61.837288 210.077850,62.693161 
	C211.183685,64.460762 210.988678,66.165298 210.989395,67.815727 
	C211.003250,100.289925 211.004822,132.764114 210.989838,165.238312 
	C210.989227,166.563034 211.097183,167.912979 210.169861,169.549957 
	C208.072372,171.082550 208.696793,173.229355 208.211823,174.780014 
	C205.040192,184.920868 196.429626,186.965454 188.054398,187.330093 
	C171.103882,188.068100 154.093811,187.649918 137.112579,187.408249 
	C121.509132,187.186203 115.540802,177.921555 115.247765,164.361908 
	C114.542480,131.726791 114.882286,99.064178 115.172943,66.415970 
	C115.244781,58.346409 118.102821,51.035221 125.983589,46.388863 
	C128.375153,44.823605 130.574478,43.494671 133.651611,44.639404 
z"/>
<path fill="#141414" opacity="1.000000" stroke="none" 
	d="
M210.253784,169.848801 
	C209.896454,134.595276 209.935898,99.253990 210.056519,63.449337 
	C212.446564,63.567200 211.976196,65.464050 211.977127,67.046242 
	C211.996521,99.975380 211.997223,132.904526 211.970093,165.833649 
	C211.968933,167.239792 212.472214,168.921112 210.253784,169.848801 
z"/>
<path fill="#161616" opacity="1.000000" stroke="none" 
	d="
M106.521812,164.886673 
	C106.084190,132.341309 106.019859,99.665550 105.905106,66.527710 
	C108.288269,66.348930 107.988548,68.208870 107.989021,69.841484 
	C107.997955,100.449577 107.996727,131.057678 107.987473,161.665771 
	C107.987129,162.806702 108.150711,164.042404 106.521812,164.886673 
z"/>
<path fill="#141414" opacity="1.000000" stroke="none" 
	d="
M133.906464,44.516735 
	C131.663116,45.252480 129.312210,45.642818 126.556915,46.041939 
	C125.761467,45.830704 125.370438,45.610687 124.979401,45.390671 
	C127.775620,43.945389 130.443665,41.573082 133.906464,44.516735 
z"/>
<path fill="#141414" opacity="1.000000" stroke="none" 
	d="
M90.676590,186.525909 
	C90.727417,186.157272 91.025284,186.475342 91.071388,186.573639 
	C91.819298,186.804565 92.318863,186.546036 92.895889,185.517700 
	C93.175316,185.138504 93.264641,185.107666 93.255936,185.123260 
	C93.885612,185.650620 95.583069,185.846649 94.338860,187.058884 
	C93.322044,188.049545 91.779175,188.714066 90.676590,186.525909 
z"/>
<path fill="#1A1A1A" opacity="1.000000" stroke="none" 
	d="
M210.459503,59.524384 
	C210.433853,59.476845 210.485138,59.571922 210.459503,59.524384 
z"/>
<path fill="#FE0000" opacity="1.000000" stroke="none" 
	d="
M34.441208,141.004120 
	C42.170418,125.069511 50.201881,109.531311 58.316269,93.832680 
	C65.773590,108.986000 73.018593,123.707901 80.450729,138.710541 
	C82.206207,140.224594 81.334274,141.019241 80.036545,141.341339 
	C78.428703,141.740433 76.732079,141.493195 75.075005,141.487183 
	C61.631191,141.438477 48.186863,141.618469 34.441208,141.004120 
z"/>
<path fill="#EF0000" opacity="1.000000" stroke="none" 
	d="
M59.381123,58.758018 
	C60.487396,63.477154 63.502197,67.040474 65.134270,71.606964 
	C65.144630,72.914230 64.633385,73.513954 63.674599,73.439499 
	C59.366772,73.104927 54.956879,74.464096 50.787685,72.181503 
	C52.583065,67.948227 54.329243,64.201469 56.287006,60.198288 
	C57.454201,59.677666 57.858688,58.386917 59.381123,58.758018 
z"/>
<path fill="#1A1A1A" opacity="1.000000" stroke="none" 
	d="
M30.912886,72.676956 
	C27.629158,69.281342 27.009748,63.124420 29.286123,59.594631 
	C30.452333,57.786289 32.123901,56.834484 34.286301,56.969753 
	C36.588867,57.113796 38.215389,58.153378 38.725903,60.566769 
	C37.057194,61.553558 36.713413,59.958740 35.833866,59.427414 
	C34.252235,58.471954 32.644909,58.589928 31.406757,60.105797 
	C30.679426,60.996258 29.693352,62.277199 30.315407,63.194324 
	C31.487415,64.922272 32.898666,62.373604 34.659500,63.083786 
	C35.355698,63.538040 35.517345,63.955326 35.428699,64.772369 
	C33.256451,66.672241 31.720030,68.529785 31.791435,71.663368 
	C31.522427,72.169472 31.374813,72.348488 30.912886,72.676956 
z"/>
<path fill="#2F0F0F" opacity="1.000000" stroke="none" 
	d="
M34.096981,141.082001 
	C49.254818,141.473831 64.382225,140.828369 79.503784,140.948212 
	C80.228180,140.953964 80.749527,140.639633 80.719849,139.408585 
	C82.469826,138.633698 82.400238,140.382797 82.579124,141.187637 
	C82.854630,142.427155 81.509544,142.047729 80.839149,142.035919 
	C65.245514,141.761017 49.639141,142.693665 34.096981,141.082001 
z"/>
<path fill="#0C0C0C" opacity="1.000000" stroke="none" 
	d="
M35.005375,65.150787 
	C35.017590,64.463448 35.019768,64.101044 35.018173,63.466854 
	C39.948952,65.653343 40.470318,68.263161 36.609200,73.047852 
	C35.830524,73.390038 35.416012,73.387817 34.836884,72.806046 
	C34.849869,70.174728 35.583054,67.856758 35.005375,65.150787 
z"/>
<path fill="#352727" opacity="1.000000" stroke="none" 
	d="
M50.517273,71.966461 
	C55.292255,74.197662 60.014992,72.614578 64.935806,72.282684 
	C66.728172,73.650360 66.728477,73.892181 65.991440,73.893120 
	C60.763378,73.899773 55.522259,74.434776 50.317932,73.586014 
	C50.207493,73.568001 50.234676,72.706131 50.517273,71.966461 
z"/>
<path fill="#262626" opacity="1.000000" stroke="none" 
	d="
M34.754936,71.875778 
	C35.279785,72.393211 35.535206,72.636948 36.023300,73.015045 
	C35.025627,74.510475 33.533485,74.124901 31.786058,73.504387 
	C31.730021,72.757088 31.997339,72.323776 32.652802,71.725609 
	C33.489799,71.390366 33.991833,71.416763 34.754936,71.875778 
z"/>
<path fill="#352727" opacity="1.000000" stroke="none" 
	d="
M59.634338,58.616409 
	C58.866463,59.254337 58.024990,59.562416 56.841053,59.906178 
	C57.481361,59.319897 56.607342,55.263042 59.634338,58.616409 
z"/>
<path fill="#1A1A1A" opacity="1.000000" stroke="none" 
	d="
M32.733265,71.925201 
	C32.682926,72.453552 32.379978,72.715363 31.800838,73.102875 
	C31.279308,73.266045 31.053839,73.215271 30.723404,72.951332 
	C30.674847,72.665794 30.751122,72.505196 30.967680,72.117775 
	C31.528721,71.596039 31.987976,71.528618 32.733265,71.925201 
z"/>
<path fill="#010101" opacity="1.000000" stroke="none" 
	d="
M92.881432,185.091705 
	C92.791313,185.594833 92.407310,186.051178 91.570396,186.589722 
	C91.607506,186.129593 92.097527,185.587250 92.881432,185.091705 
z"/>
<path fill="#040404" opacity="1.000000" stroke="none" 
	d="
M150.315048,129.684875 
	C146.769943,126.142456 143.563293,122.754234 140.143036,119.597435 
	C138.389526,117.978989 138.532150,116.990189 140.173767,115.387718 
	C147.198624,108.530350 154.145584,101.590858 161.005219,94.568275 
	C162.568161,92.968185 163.463608,93.081314 164.961792,94.610504 
	C171.833008,101.623924 178.756561,108.589195 185.802551,115.426193 
	C187.693420,117.260956 187.086365,118.316658 185.560806,119.818924 
	C178.683258,126.591400 171.812576,133.373795 165.091553,140.300247 
	C163.339462,142.105896 162.367142,141.933319 160.765472,140.209732 
	C157.482010,136.676361 153.978165,133.347778 150.315048,129.684875 
z"/>
<path fill="#090909" opacity="1.000000" stroke="none" 
	d="
M161.763443,57.695724 
	C166.559525,58.039303 168.409042,62.038979 170.788498,65.018059 
	C171.802597,66.287712 168.997543,67.796104 167.768372,68.952446 
	C166.075806,70.544716 164.509735,74.090271 162.368637,73.041481 
	C159.427490,71.600784 157.266846,68.474258 154.941086,65.916168 
	C154.038193,64.923088 155.310837,64.211975 155.932251,63.569199 
	C157.766342,61.672066 159.648331,59.821243 161.763443,57.695724 
z"/>
<path fill="#0C0C0C" opacity="1.000000" stroke="none" 
	d="
M140.577301,59.457726 
	C144.669525,62.576065 144.888855,66.430305 141.446991,71.972046 
	C140.834854,72.112740 140.577301,72.128685 140.263489,71.761673 
	C140.479401,70.435570 140.751572,69.492432 141.253540,68.251648 
	C141.464966,66.698830 140.187454,66.094658 139.843048,64.617294 
	C139.526901,62.818668 139.545364,61.382072 140.577301,59.457726 
z"/>
<path fill="#161616" opacity="1.000000" stroke="none" 
	d="
M134.273376,66.141144 
	C131.740097,63.303581 132.236435,60.724625 134.706299,58.168549 
	C135.531082,58.201672 135.942505,58.450588 136.427887,59.162506 
	C136.810745,61.252972 136.527084,62.950466 135.922836,64.972153 
	C135.471130,65.721809 135.096558,66.036583 134.273376,66.141144 
z"/>
<path fill="#262626" opacity="1.000000" stroke="none" 
	d="
M134.055557,66.382538 
	C134.211884,65.806686 134.509384,65.572968 134.944305,65.086945 
	C136.823502,64.113953 138.597656,64.261032 140.678680,64.793762 
	C141.366608,65.792839 142.354126,66.420067 141.699066,67.757050 
	C139.227921,66.516167 136.205597,69.623985 134.055557,66.382538 
z"/>
<path fill="#262626" opacity="1.000000" stroke="none" 
	d="
M140.066467,72.845581 
	C136.656052,75.264839 134.536911,73.851547 132.821442,70.268593 
	C135.361740,69.544197 136.077820,73.027138 138.651428,72.098404 
	C139.329605,72.321442 139.640274,72.477440 140.066467,72.845581 
z"/>
<path fill="#0C0C0C" opacity="1.000000" stroke="none" 
	d="
M136.484436,59.375610 
	C135.922226,58.910297 135.628906,58.719936 135.186417,58.311951 
	C137.015442,56.538364 138.960464,56.408512 140.963287,58.579163 
	C141.066422,58.928688 140.744293,59.265270 140.583145,59.433464 
	C139.208466,60.320427 137.984711,60.272587 136.484436,59.375610 
z"/>
<path fill="#0C0C0C" opacity="1.000000" stroke="none" 
	d="
M140.409698,73.028748 
	C139.885117,72.906342 139.603424,72.725235 139.179230,72.337288 
	C139.306244,71.978119 139.566360,71.811157 140.012177,71.504150 
	C140.358536,71.493736 140.509842,71.608772 140.876785,71.910294 
	C141.069260,72.450058 140.922638,72.741142 140.409698,73.028748 
z"/>
<path fill="#DDDDDD" opacity="1.000000" stroke="none" 
	d="
M33.325142,72.158783 
	C32.571499,72.114708 32.157124,72.037666 31.425354,71.925797 
	C30.403206,68.766106 28.868189,65.269173 34.634148,64.849548 
	C37.771355,66.904770 37.740498,69.240829 35.340092,71.957939 
	C34.571045,72.141594 34.117725,72.133705 33.325142,72.158783 
z"/>
<path fill="#E3E3E3" opacity="1.000000" stroke="none" 
	d="
M136.041901,59.440449 
	C137.414139,59.133087 138.612732,59.165512 140.116653,59.399799 
	C141.295029,61.026649 141.467728,62.545361 141.003555,64.548248 
	C139.276413,66.195427 137.542633,66.744713 135.395340,65.018494 
	C134.892822,63.079639 134.353333,61.270092 136.041901,59.440449 
z"/>
</svg>